<svg xmlns="http://www.w3.org/2000/svg" xmlns:xlink="http://www.w3.org/1999/xlink" width="1000" zoomAndPan="magnify" viewBox="0 0 750 225" height="300" preserveAspectRatio="xMidYMid meet" version="1.0"><defs><g/><clipPath id="af4e1ef574"><path d="M 53 162 L 170 162 L 170 203.042969 L 53 203.042969 Z M 53 162 " clip-rule="nonzero"/></clipPath><clipPath id="6ee4b825e2"><path d="M 682.847656 76.980469 L 703.519531 76.980469 L 703.519531 97.160156 L 682.847656 97.160156 Z M 682.847656 76.980469 " clip-rule="nonzero"/></clipPath></defs><g fill="#35384b" fill-opacity="1"><g transform="translate(11.795324, 154.358682)"><g><path d="M 7.171875 -87.265625 L 29.515625 -87.265625 L 29.515625 0 L 7.171875 0 Z M 7.171875 -87.265625 "/></g></g></g><g fill="#35384b" fill-opacity="1"><g transform="translate(39.080777, 154.358682)"><g><path d="M 39.15625 1.0625 C 32.34375 1.0625 26.191406 -0.347656 20.703125 -3.171875 C 15.210938 -5.992188 10.914062 -9.914062 7.8125 -14.9375 C 4.71875 -19.957031 3.171875 -25.640625 3.171875 -31.984375 C 3.171875 -38.265625 4.71875 -43.910156 7.8125 -48.921875 C 10.914062 -53.941406 15.191406 -57.84375 20.640625 -60.625 C 26.085938 -63.40625 32.257812 -64.796875 39.15625 -64.796875 C 46.0625 -64.796875 52.257812 -63.40625 57.75 -60.625 C 63.238281 -57.84375 67.507812 -53.960938 70.5625 -48.984375 C 73.625 -44.003906 75.15625 -38.335938 75.15625 -31.984375 C 75.15625 -25.640625 73.625 -19.957031 70.5625 -14.9375 C 67.507812 -9.914062 63.238281 -5.992188 57.75 -3.171875 C 52.257812 -0.347656 46.0625 1.0625 39.15625 1.0625 Z M 39.15625 -16.703125 C 43.082031 -16.703125 46.300781 -18.050781 48.8125 -20.75 C 51.320312 -23.457031 52.578125 -27.203125 52.578125 -31.984375 C 52.578125 -36.691406 51.320312 -40.378906 48.8125 -43.046875 C 46.300781 -45.710938 43.082031 -47.046875 39.15625 -47.046875 C 35.238281 -47.046875 32.023438 -45.710938 29.515625 -43.046875 C 27.003906 -40.378906 25.75 -36.691406 25.75 -31.984375 C 25.75 -27.203125 27.003906 -23.457031 29.515625 -20.75 C 32.023438 -18.050781 35.238281 -16.703125 39.15625 -16.703125 Z M 39.15625 -16.703125 "/></g></g></g><g fill="#35384b" fill-opacity="1"><g transform="translate(107.883651, 154.358682)"><g><path d="M 39.75 1.0625 C 32.695312 1.0625 26.382812 -0.347656 20.8125 -3.171875 C 15.25 -5.992188 10.914062 -9.914062 7.8125 -14.9375 C 4.71875 -19.957031 3.171875 -25.640625 3.171875 -31.984375 C 3.171875 -38.335938 4.71875 -44.003906 7.8125 -48.984375 C 10.914062 -53.960938 15.25 -57.84375 20.8125 -60.625 C 26.382812 -63.40625 32.695312 -64.796875 39.75 -64.796875 C 46.96875 -64.796875 53.203125 -63.25 58.453125 -60.15625 C 63.703125 -57.0625 67.425781 -52.769531 69.625 -47.28125 L 52.34375 -38.453125 C 49.4375 -44.179688 45.203125 -47.046875 39.640625 -47.046875 C 35.640625 -47.046875 32.320312 -45.710938 29.6875 -43.046875 C 27.0625 -40.378906 25.75 -36.691406 25.75 -31.984375 C 25.75 -27.203125 27.0625 -23.457031 29.6875 -20.75 C 32.320312 -18.050781 35.640625 -16.703125 39.640625 -16.703125 C 45.203125 -16.703125 49.4375 -19.5625 52.34375 -25.28125 L 69.625 -16.46875 C 67.425781 -10.976562 63.703125 -6.679688 58.453125 -3.578125 C 53.203125 -0.484375 46.96875 1.0625 39.75 1.0625 Z M 39.75 1.0625 "/></g></g></g><g fill="#35384b" fill-opacity="1"><g transform="translate(169.276904, 154.358682)"><g><path d="M 34.34375 -64.796875 C 44.925781 -64.796875 53 -62.382812 58.5625 -57.5625 C 64.132812 -52.75 66.921875 -45.363281 66.921875 -35.40625 L 66.921875 0 L 46.109375 0 L 46.109375 -8.234375 C 42.890625 -2.035156 36.613281 1.0625 27.28125 1.0625 C 22.34375 1.0625 18.070312 0.203125 14.46875 -1.515625 C 10.863281 -3.242188 8.140625 -5.578125 6.296875 -8.515625 C 4.453125 -11.460938 3.53125 -14.816406 3.53125 -18.578125 C 3.53125 -24.617188 5.84375 -29.304688 10.46875 -32.640625 C 15.09375 -35.972656 22.226562 -37.640625 31.875 -37.640625 L 44.578125 -37.640625 C 44.179688 -44.378906 39.671875 -47.75 31.046875 -47.75 C 27.992188 -47.75 24.894531 -47.257812 21.75 -46.28125 C 18.613281 -45.300781 15.953125 -43.945312 13.765625 -42.21875 L 6.234375 -57.390625 C 9.765625 -59.742188 14.054688 -61.566406 19.109375 -62.859375 C 24.171875 -64.148438 29.25 -64.796875 34.34375 -64.796875 Z M 33.515625 -13.046875 C 36.109375 -13.046875 38.382812 -13.671875 40.34375 -14.921875 C 42.300781 -16.179688 43.710938 -18.03125 44.578125 -20.46875 L 44.578125 -25.984375 L 34.9375 -25.984375 C 28.425781 -25.984375 25.171875 -23.828125 25.171875 -19.515625 C 25.171875 -17.554688 25.914062 -15.988281 27.40625 -14.8125 C 28.894531 -13.632812 30.929688 -13.046875 33.515625 -13.046875 Z M 33.515625 -13.046875 "/></g></g></g><g fill="#35384b" fill-opacity="1"><g transform="translate(233.610488, 154.358682)"><g><path d="M 7.171875 -87.265625 L 29.515625 -87.265625 L 29.515625 0 L 7.171875 0 Z M 7.171875 -87.265625 "/></g></g></g><g fill="#38b6ff" fill-opacity="1"><g transform="translate(260.900528, 154.358682)"><g><path d="M 7.171875 -87.265625 L 29.515625 -87.265625 L 29.515625 0 L 7.171875 0 Z M 7.171875 -87.265625 "/></g></g></g><g fill="#38b6ff" fill-opacity="1"><g transform="translate(288.185981, 154.358682)"><g><path d="M 72.328125 -31.75 C 72.328125 -31.59375 72.210938 -29.753906 71.984375 -26.234375 L 25.640625 -26.234375 C 26.578125 -22.929688 28.398438 -20.398438 31.109375 -18.640625 C 33.816406 -16.878906 37.207031 -16 41.28125 -16 C 44.34375 -16 46.988281 -16.425781 49.21875 -17.28125 C 51.457031 -18.144531 53.710938 -19.554688 55.984375 -21.515625 L 67.75 -9.296875 C 61.550781 -2.390625 52.492188 1.0625 40.578125 1.0625 C 33.128906 1.0625 26.582031 -0.347656 20.9375 -3.171875 C 15.289062 -5.992188 10.914062 -9.914062 7.8125 -14.9375 C 4.71875 -19.957031 3.171875 -25.640625 3.171875 -31.984375 C 3.171875 -38.265625 4.679688 -43.890625 7.703125 -48.859375 C 10.722656 -53.835938 14.894531 -57.738281 20.21875 -60.5625 C 25.550781 -63.382812 31.550781 -64.796875 38.21875 -64.796875 C 44.570312 -64.796875 50.335938 -63.484375 55.515625 -60.859375 C 60.691406 -58.234375 64.785156 -54.429688 67.796875 -49.453125 C 70.816406 -44.472656 72.328125 -38.570312 72.328125 -31.75 Z M 38.34375 -48.921875 C 34.894531 -48.921875 32.015625 -47.941406 29.703125 -45.984375 C 27.390625 -44.023438 25.914062 -41.359375 25.28125 -37.984375 L 51.390625 -37.984375 C 50.765625 -41.359375 49.296875 -44.023438 46.984375 -45.984375 C 44.671875 -47.941406 41.789062 -48.921875 38.34375 -48.921875 Z M 38.34375 -48.921875 "/></g></g></g><g fill="#38b6ff" fill-opacity="1"><g transform="translate(354.16614, 154.358682)"><g><path d="M 34.34375 -64.796875 C 44.925781 -64.796875 53 -62.382812 58.5625 -57.5625 C 64.132812 -52.75 66.921875 -45.363281 66.921875 -35.40625 L 66.921875 0 L 46.109375 0 L 46.109375 -8.234375 C 42.890625 -2.035156 36.613281 1.0625 27.28125 1.0625 C 22.34375 1.0625 18.070312 0.203125 14.46875 -1.515625 C 10.863281 -3.242188 8.140625 -5.578125 6.296875 -8.515625 C 4.453125 -11.460938 3.53125 -14.816406 3.53125 -18.578125 C 3.53125 -24.617188 5.84375 -29.304688 10.46875 -32.640625 C 15.09375 -35.972656 22.226562 -37.640625 31.875 -37.640625 L 44.578125 -37.640625 C 44.179688 -44.378906 39.671875 -47.75 31.046875 -47.75 C 27.992188 -47.75 24.894531 -47.257812 21.75 -46.28125 C 18.613281 -45.300781 15.953125 -43.945312 13.765625 -42.21875 L 6.234375 -57.390625 C 9.765625 -59.742188 14.054688 -61.566406 19.109375 -62.859375 C 24.171875 -64.148438 29.25 -64.796875 34.34375 -64.796875 Z M 33.515625 -13.046875 C 36.109375 -13.046875 38.382812 -13.671875 40.34375 -14.921875 C 42.300781 -16.179688 43.710938 -18.03125 44.578125 -20.46875 L 44.578125 -25.984375 L 34.9375 -25.984375 C 28.425781 -25.984375 25.171875 -23.828125 25.171875 -19.515625 C 25.171875 -17.554688 25.914062 -15.988281 27.40625 -14.8125 C 28.894531 -13.632812 30.929688 -13.046875 33.515625 -13.046875 Z M 33.515625 -13.046875 "/></g></g></g><g fill="#38b6ff" fill-opacity="1"><g transform="translate(418.499725, 154.358682)"><g><path d="M 74.921875 -87.265625 L 74.921875 0 L 53.625 0 L 53.625 -6.34375 C 49.46875 -1.40625 43.238281 1.0625 34.9375 1.0625 C 29.132812 1.0625 23.835938 -0.289062 19.046875 -3 C 14.265625 -5.707031 10.484375 -9.566406 7.703125 -14.578125 C 4.921875 -19.597656 3.53125 -25.398438 3.53125 -31.984375 C 3.53125 -38.578125 4.921875 -44.363281 7.703125 -49.34375 C 10.484375 -54.320312 14.265625 -58.140625 19.046875 -60.796875 C 23.835938 -63.460938 29.132812 -64.796875 34.9375 -64.796875 C 42.539062 -64.796875 48.421875 -62.601562 52.578125 -58.21875 L 52.578125 -87.265625 Z M 39.640625 -16.703125 C 43.472656 -16.703125 46.644531 -18.050781 49.15625 -20.75 C 51.664062 -23.457031 52.921875 -27.203125 52.921875 -31.984375 C 52.921875 -36.691406 51.6875 -40.378906 49.21875 -43.046875 C 46.75 -45.710938 43.554688 -47.046875 39.640625 -47.046875 C 35.710938 -47.046875 32.492188 -45.710938 29.984375 -43.046875 C 27.484375 -40.378906 26.234375 -36.691406 26.234375 -31.984375 C 26.234375 -27.203125 27.484375 -23.457031 29.984375 -20.75 C 32.492188 -18.050781 35.710938 -16.703125 39.640625 -16.703125 Z M 39.640625 -16.703125 "/></g></g></g><g fill="#38b6ff" fill-opacity="1"><g transform="translate(491.066214, 154.358682)"><g><path d="M 30.34375 1.0625 C 25.007812 1.0625 19.753906 0.453125 14.578125 -0.765625 C 9.410156 -1.984375 5.253906 -3.570312 2.109375 -5.53125 L 8.828125 -20.8125 C 11.722656 -19.007812 15.171875 -17.578125 19.171875 -16.515625 C 23.171875 -15.460938 27.128906 -14.9375 31.046875 -14.9375 C 34.648438 -14.9375 37.21875 -15.304688 38.75 -16.046875 C 40.28125 -16.796875 41.046875 -17.875 41.046875 -19.28125 C 41.046875 -20.695312 40.125 -21.695312 38.28125 -22.28125 C 36.4375 -22.875 33.515625 -23.445312 29.515625 -24 C 24.421875 -24.625 20.085938 -25.441406 16.515625 -26.453125 C 12.953125 -27.472656 9.875 -29.351562 7.28125 -32.09375 C 4.695312 -34.84375 3.40625 -38.691406 3.40625 -43.640625 C 3.40625 -47.710938 4.617188 -51.335938 7.046875 -54.515625 C 9.484375 -57.691406 13.035156 -60.195312 17.703125 -62.03125 C 22.367188 -63.875 27.953125 -64.796875 34.453125 -64.796875 C 39.085938 -64.796875 43.675781 -64.328125 48.21875 -63.390625 C 52.769531 -62.453125 56.570312 -61.117188 59.625 -59.390625 L 52.921875 -44.21875 C 47.273438 -47.351562 41.160156 -48.921875 34.578125 -48.921875 C 31.046875 -48.921875 28.457031 -48.507812 26.8125 -47.6875 C 25.164062 -46.863281 24.34375 -45.785156 24.34375 -44.453125 C 24.34375 -42.960938 25.242188 -41.921875 27.046875 -41.328125 C 28.847656 -40.742188 31.828125 -40.140625 35.984375 -39.515625 C 41.242188 -38.734375 45.597656 -37.832031 49.046875 -36.8125 C 52.492188 -35.789062 55.488281 -33.925781 58.03125 -31.21875 C 60.582031 -28.519531 61.859375 -24.738281 61.859375 -19.875 C 61.859375 -15.875 60.644531 -12.285156 58.21875 -9.109375 C 55.789062 -5.929688 52.203125 -3.441406 47.453125 -1.640625 C 42.710938 0.160156 37.007812 1.0625 30.34375 1.0625 Z M 30.34375 1.0625 "/></g></g></g><g clip-path="url(#af4e1ef574)"><path fill="#35384b" d="M 160.214844 164.988281 C 161.644531 162.507812 164.8125 161.664062 167.277344 163.105469 C 169.757812 164.535156 170.601562 167.703125 169.175781 170.183594 C 163.265625 180.402344 154.851562 188.671875 144.96875 194.386719 C 135.0625 200.101562 123.6875 203.253906 111.886719 203.253906 C 100.082031 203.253906 88.707031 200.101562 78.800781 194.386719 C 68.917969 188.671875 60.503906 180.402344 54.597656 170.183594 C 53.167969 167.703125 54.011719 164.535156 56.480469 163.105469 C 58.957031 161.664062 62.128906 162.507812 63.554688 164.988281 C 68.542969 173.625 75.644531 180.597656 83.992188 185.425781 C 92.316406 190.230469 101.898438 192.878906 111.886719 192.878906 C 121.871094 192.878906 131.453125 190.230469 139.777344 185.425781 C 148.125 180.597656 155.226562 173.625 160.214844 164.988281 Z M 160.214844 164.988281 " fill-opacity="1" fill-rule="nonzero"/></g><path fill="#35384b" d="M 64.011719 158.769531 C 66.488281 157.355469 69.644531 158.199219 71.0625 160.679688 C 72.488281 163.144531 71.632812 166.300781 69.164062 167.730469 L 54.140625 176.402344 C 51.675781 177.820312 48.507812 176.960938 47.089844 174.496094 C 45.675781 172.015625 46.519531 168.859375 49 167.445312 Z M 64.011719 158.769531 " fill-opacity="1" fill-rule="nonzero"/><path fill="#35384b" d="M 154.605469 167.730469 C 152.136719 166.300781 151.28125 163.144531 152.710938 160.679688 C 154.125 158.199219 157.28125 157.355469 159.761719 158.769531 L 174.769531 167.445312 C 177.25 168.859375 178.09375 172.015625 176.679688 174.496094 C 175.25 176.960938 172.09375 177.820312 169.628906 176.402344 Z M 154.605469 167.730469 " fill-opacity="1" fill-rule="nonzero"/><g fill="#35384b" fill-opacity="1"><g transform="translate(555.184249, 124.939182)"><g><path d="M 36.59375 -11.375 L 36.59375 0 L 1.734375 0 L 1.734375 -9.015625 L 17.453125 -23.546875 C 18.816406 -24.828125 19.726562 -25.921875 20.1875 -26.828125 C 20.644531 -27.742188 20.875 -28.640625 20.875 -29.515625 C 20.875 -30.585938 20.507812 -31.421875 19.78125 -32.015625 C 19.0625 -32.617188 18.019531 -32.921875 16.65625 -32.921875 C 15.320312 -32.921875 14.078125 -32.566406 12.921875 -31.859375 C 11.765625 -31.160156 10.875 -30.171875 10.25 -28.890625 L -0.8125 -34.421875 C 0.84375 -37.523438 3.265625 -39.976562 6.453125 -41.78125 C 9.648438 -43.582031 13.503906 -44.484375 18.015625 -44.484375 C 21.453125 -44.484375 24.492188 -43.921875 27.140625 -42.796875 C 29.796875 -41.679688 31.867188 -40.085938 33.359375 -38.015625 C 34.847656 -35.953125 35.59375 -33.570312 35.59375 -30.875 C 35.59375 -28.46875 35.082031 -26.21875 34.0625 -24.125 C 33.050781 -22.039062 31.078125 -19.671875 28.140625 -17.015625 L 21.9375 -11.375 Z M 36.59375 -11.375 "/></g></g></g><g fill="#35384b" fill-opacity="1"><g transform="translate(592.958889, 124.939182)"><g><path d="M 43.984375 -7.453125 L 38.203125 -7.453125 L 38.203125 0 L 23.984375 0 L 23.984375 -7.453125 L 1.421875 -7.453125 L 1.421875 -16.78125 L 19.875 -43.484375 L 34.921875 -43.484375 L 18.515625 -18.828125 L 24.421875 -18.828125 L 24.421875 -25.46875 L 38.203125 -25.46875 L 38.203125 -18.828125 L 43.984375 -18.828125 Z M 43.984375 -7.453125 "/></g></g></g><g fill="#35384b" fill-opacity="1"><g transform="translate(637.194976, 124.939182)"><g><path d="M 38.515625 -43.484375 L 38.515625 -34.484375 L 24.046875 0 L 8.015625 0 L 21.8125 -32.125 L 13.421875 -32.125 L 13.421875 -25.78125 L 1.296875 -25.78125 L 1.296875 -43.484375 Z M 38.515625 -43.484375 "/></g></g></g><g clip-path="url(#6ee4b825e2)"><path fill="#35384b" d="M 691.679688 86.609375 L 692.785156 86.609375 C 694.074219 86.609375 695.117188 86.179688 695.117188 85.136719 C 695.117188 84.214844 694.441406 83.601562 692.96875 83.601562 C 692.355469 83.601562 691.925781 83.664062 691.679688 83.726562 Z M 691.621094 92.25 L 689.289062 92.25 L 689.289062 82.191406 C 690.210938 82.070312 691.496094 81.886719 693.152344 81.886719 C 695.054688 81.886719 695.914062 82.191406 696.589844 82.683594 C 697.203125 83.113281 697.632812 83.847656 697.632812 84.828125 C 697.632812 86.058594 696.710938 86.855469 695.546875 87.222656 L 695.546875 87.34375 C 696.527344 87.652344 697.019531 88.449219 697.324219 89.796875 C 697.632812 91.332031 697.875 91.882812 698.058594 92.25 L 695.605469 92.25 C 695.300781 91.882812 695.117188 91.023438 694.808594 89.796875 C 694.625 88.753906 694.011719 88.265625 692.722656 88.265625 L 691.621094 88.265625 Z M 685.425781 87.039062 C 685.425781 91.515625 688.796875 95.074219 693.277344 95.074219 C 697.632812 95.132812 700.941406 91.515625 700.941406 87.097656 C 700.941406 82.621094 697.632812 79.003906 693.152344 79.003906 C 688.796875 79.003906 685.425781 82.621094 685.425781 87.039062 Z M 703.519531 87.039062 C 703.519531 92.679688 698.980469 97.160156 693.214844 97.160156 C 687.449219 97.160156 682.847656 92.679688 682.847656 87.039062 C 682.847656 81.394531 687.449219 76.980469 693.277344 76.980469 C 698.980469 76.980469 703.519531 81.394531 703.519531 87.039062 " fill-opacity="1" fill-rule="nonzero"/></g></svg>